<svg xmlns="http://www.w3.org/2000/svg" xmlns:xlink="http://www.w3.org/1999/xlink" width="52" height="728" viewBox="0 0 52 728"><svg width="52" height="52" viewBox="0 0 52 52" id="div" y="0"><path fill="#7E97BE" d="M51 25.998C51 39.808 39.81 51 26 51 12.194 51 1 39.807 1 25.998 1 12.192 12.194 1 26 1c13.81 0 25 11.192 25 24.998"/><circle stroke="#000" stroke-width="1.5" stroke-miterlimit="10" cx="26" cy="25.998" r="25" fill="none"/><path d="M10.097 33.64V18.007h5.34c.435 0 .864.01 1.283.03.42.02.833.073 1.236.153.406.08.8.2 1.185.36.383.16.756.368 1.12.63.52.374.948.835 1.28 1.377.332.542.598 1.115.793 1.717.193.598.332 1.208.41 1.822.08.617.122 1.185.122 1.704 0 .52-.034 1.05-.098 1.585-.067.538-.172 1.06-.316 1.575-.143.515-.335 1.006-.574 1.476s-.54.902-.9 1.293c-.362.402-.758.728-1.184.976-.427.243-.876.437-1.347.573-.47.138-.958.232-1.465.28-.506.053-1.02.078-1.542.078h-5.34zm1.478-1.26h3.54c.665 0 1.29-.04 1.875-.12.59-.078 1.185-.28 1.79-.597.523-.26.95-.614 1.284-1.064.332-.448.597-.936.792-1.466.195-.526.33-1.082.41-1.66.08-.58.122-1.136.122-1.673 0-.562-.036-1.138-.108-1.724-.07-.588-.21-1.144-.413-1.673-.203-.526-.48-1.012-.826-1.454-.345-.44-.792-.808-1.343-1.096-.465-.247-1.015-.406-1.65-.48-.637-.07-1.282-.11-1.932-.11h-3.54V32.38zM26.293 18.008h1.478v15.63h-1.477zM30.44 18.008h1.542L36.694 31.9l4.69-13.892h1.54l-5.43 15.63H35.87z"/></svg>
<svg width="52" height="52" viewBox="0 0 52 52" id="eight" y="52"><path fill="#ED1C24" d="M51 25.834c0 13.805-11.195 25-25 25-13.807 0-25-11.194-25-25 0-13.808 11.193-25 25-25 13.805 0 25 11.193 25 25"/><circle stroke="#000" stroke-width="1.5" stroke-miterlimit="10" cx="26.034" cy="25.869" r="24.966" fill="none"/><path d="M23.11 24.93c-.453-.277-.84-.54-1.16-.793-.32-.252-.586-.526-.793-.82-.208-.295-.36-.63-.457-1.003-.094-.373-.142-.838-.142-1.395 0-.625.137-1.215.417-1.77.276-.556.65-1.038 1.117-1.446.47-.408 1.022-.725 1.655-.95.634-.226 1.316-.33 2.044-.313.696 0 1.376.088 2.046.26.67.176 1.263.445 1.782.81.523.364.937.83 1.25 1.392.312.564.47 1.237.47 2.018 0 .956-.195 1.77-.586 2.45-.39.674-1.028 1.232-1.915 1.665 1.006.366 1.802.946 2.382 1.746.583.8.876 1.735.876 2.813 0 .9-.154 1.7-.457 2.396-.306.692-.743 1.275-1.303 1.743-.564.47-1.248.824-2.046 1.068-.796.244-1.685.366-2.656.366-.66 0-1.333-.114-2.02-.34-.684-.225-1.3-.563-1.847-1.016-.548-.45-.994-1.016-1.342-1.692-.346-.677-.52-1.468-.52-2.37 0-1.094.273-2.07.82-2.93.548-.86 1.342-1.487 2.385-1.888m2.916.885c-.643 0-1.234.08-1.77.235-.54.156-1.01.396-1.407.714-.4.324-.714.73-.94 1.228-.225.493-.338 1.08-.338 1.757 0 .57.11 1.1.326 1.59.217.48.52.905.912 1.26.39.356.867.64 1.433.848.562.206 1.194.312 1.886.312.607 0 1.17-.102 1.693-.3s.976-.48 1.366-.847c.39-.363.694-.8.913-1.302.215-.5.32-1.058.32-1.665 0-.642-.11-1.2-.336-1.68-.227-.477-.537-.876-.938-1.2-.4-.32-.867-.56-1.406-.714-.536-.156-1.11-.235-1.718-.235m-.078-7.966c-.52 0-1.007.067-1.458.205-.452.14-.846.35-1.187.625-.338.278-.603.625-.793 1.042-.19.416-.287.894-.287 1.433 0 .573.108 1.063.326 1.47.217.41.507.744.872 1.003.366.26.78.456 1.25.585.47.13.954.196 1.457.196.503 0 .972-.065 1.404-.197.436-.13.81-.342 1.122-.638.312-.293.56-.667.744-1.12.18-.45.27-1.006.27-1.666 0-.938-.304-1.662-.91-2.174-.607-.512-1.544-.767-2.812-.767"/></svg>
<svg width="52" height="52" viewBox="0 0 52 52" id="eighteen" y="104"><path fill="#ED1C24" d="M50.833 25.667c0 13.806-11.192 25-25 25s-25-11.193-25-25c0-13.81 11.192-25 25-25s25 11.19 25 25"/><path stroke="#fff" stroke-width="1.5" stroke-miterlimit="10" d="M50.833 25.667c0 13.806-11.192 25-25 25s-25-11.193-25-25c0-13.81 11.192-25 25-25s25 11.19 25 25z" fill="none"/><path fill="#fff" d="M17.483 19.658h-4.74v-1.092c.693-.054 1.325-.123 1.888-.208.566-.09 1.06-.253 1.485-.497.426-.242.782-.592 1.068-1.052.286-.46.5-1.082.636-1.863h1.33v18.36h-1.667V19.658zM28.446 23.436c-.45-.28-.838-.544-1.158-.794-.322-.25-.585-.524-.795-.82-.21-.296-.36-.63-.457-1.004-.095-.373-.142-.835-.142-1.394 0-.625.138-1.215.418-1.77.275-.555.648-1.037 1.117-1.446.468-.407 1.02-.725 1.655-.95.635-.224 1.316-.33 2.045-.312.69 0 1.374.088 2.042.26.668.176 1.264.445 1.785.81.52.364.938.83 1.248 1.394.312.564.47 1.236.47 2.015 0 .956-.196 1.773-.585 2.45-.39.675-1.03 1.23-1.916 1.665 1.006.366 1.8.948 2.385 1.745.58.8.872 1.74.872 2.814 0 .9-.154 1.7-.457 2.395s-.74 1.274-1.303 1.743c-.564.47-1.244.824-2.045 1.07-.8.242-1.686.364-2.655.364-.658 0-1.33-.115-2.02-.337-.682-.23-1.3-.567-1.848-1.02-.547-.448-.994-1.015-1.34-1.69-.348-.68-.52-1.47-.52-2.372 0-1.092.272-2.067.82-2.93.547-.86 1.34-1.488 2.382-1.887m2.916.884c-.64 0-1.232.08-1.77.234-.536.158-1.007.396-1.405.718-.4.322-.713.73-.94 1.222-.223.496-.335 1.082-.335 1.758 0 .576.108 1.103.326 1.59.213.483.52.907.91 1.262.39.356.867.638 1.434.847.562.213 1.193.316 1.886.316.607 0 1.172-.1 1.69-.3.524-.2.978-.483 1.368-.85.393-.362.695-.798.914-1.298.215-.506.326-1.06.326-1.67 0-.64-.115-1.202-.342-1.678-.223-.478-.537-.875-.938-1.198-.396-.322-.867-.56-1.404-.718-.54-.155-1.11-.234-1.72-.234m-.078-7.97c-.52 0-1.006.07-1.46.21-.448.138-.843.347-1.183.625-.34.278-.603.624-.794 1.04-.19.418-.287.894-.287 1.433 0 .572.108 1.064.325 1.47.217.41.51.745.875 1.004.363.26.78.455 1.25.586.467.13.953.194 1.456.194.504 0 .97-.063 1.404-.194.436-.13.81-.342 1.12-.637.315-.295.563-.668.743-1.12.184-.45.273-1.007.273-1.667 0-.936-.3-1.66-.91-2.172-.604-.512-1.543-.77-2.812-.77"/></svg>
<svg width="52" height="52" viewBox="0 0 52 52" id="greencase" y="156"><path fill="#79C843" d="M50.93 39.896c0 3.135-2.167 5.744-5.276 5.744H6.228c-3.11 0-5.3-2.61-5.3-5.744V20.51c0-3.133 2.19-5.76 5.3-5.76h39.426c3.11 0 5.275 2.627 5.275 5.76v19.386z"/><path fill="#fff" d="M7.533 14.75H8.95v30.89H7.532zM43.382 14.75h1.415v30.89h-1.415z"/><path stroke="#79C843" stroke-width="5" stroke-miterlimit="10" d="M35.126 19.025c0 3.43-2.52 6.266-5.48 6.266h-8.032c-2.958 0-5.356-2.834-5.356-6.265V13.85c0-3.43 2.398-6.21 5.356-6.21h8.033c2.96 0 5.48 2.78 5.48 6.21v5.175z" fill="none"/></svg>
<svg width="52" height="52" viewBox="0 0 52 52" id="info" y="208"><circle fill="#3FA9F5" cx="25.917" cy="25.833" r="25"/><path fill="#fff" d="M23.974 23.252c.345-.885-.1-1.328-.495-1.328-1.822 0-4.19 4.283-5.073 4.283-.348 0-.643-.346-.643-.642 0-.883 2.167-2.954 2.812-3.593 1.965-1.872 4.53-3.303 7.387-3.303 2.117 0 4.385 1.28 2.612 6.06l-3.55 9.605c-.294.74-.838 1.972-.838 2.758 0 .345.196.69.592.69 1.478 0 4.187-4.186 4.877-4.186.245 0 .588.292.588.737 0 1.43-5.76 7.538-10.734 7.538-1.774 0-3.005-.837-3.005-2.71 0-2.363 1.673-6.407 2.02-7.238l3.45-8.672zm2.657-9.704c0-2.167 1.874-3.94 4.04-3.94 1.974 0 3.4 1.328 3.4 3.35 0 2.264-1.87 3.94-4.09 3.94-2.017 0-3.35-1.328-3.35-3.35z"/></svg>
<svg width="52" height="52" viewBox="0 0 52 52" id="mco" y="260"><path fill="#2C5696" d="M50.89 25.847c0 13.807-11.193 25-25 25-13.81 0-25-11.193-25-25s11.19-25 25-25c13.806 0 25 11.194 25 25"/><path fill="#fff" d="M3.813 33.486V19h2.093l4.75 12.776h.04L15.362 19h2.073v14.486h-1.368V20.568h-.04l-4.75 12.918H9.992L5.223 20.568h-.04v12.918zM30.918 23.204c-.282-1.234-.806-2.113-1.57-2.636-.764-.523-1.765-.785-2.998-.785-.872 0-1.623.174-2.254.522-.63.35-1.15.82-1.56 1.41-.408.59-.71 1.27-.904 2.042-.195.77-.292 1.586-.292 2.445 0 .805.084 1.596.252 2.376.167.776.445 1.47.835 2.08.39.612.912 1.104 1.57 1.48.656.376 1.48.562 2.474.562.618 0 1.18-.1 1.69-.302s.957-.48 1.34-.834c.382-.356.704-.775.965-1.26.262-.48.46-1.012.594-1.59h1.428c-.16.7-.396 1.36-.704 1.982-.31.624-.714 1.17-1.218 1.642-.503.47-1.112.842-1.832 1.115-.717.276-1.558.413-2.524.413-1.113 0-2.064-.205-2.857-.613-.79-.41-1.44-.962-1.94-1.66-.504-.697-.87-1.505-1.1-2.425-.227-.918-.34-1.894-.34-2.928 0-1.38.17-2.555.512-3.52.343-.967.816-1.756 1.418-2.366.604-.61 1.315-1.052 2.134-1.328.818-.274 1.71-.412 2.676-.412.737 0 1.424.097 2.062.29.638.197 1.2.49 1.69.877.49.39.893.87 1.208 1.44.314.57.532 1.23.653 1.98h-1.408zM34.6 26.263c0-1.06.144-2.053.433-2.98.288-.924.714-1.73 1.277-2.423.563-.69 1.262-1.238 2.093-1.64s1.79-.604 2.877-.604c1.127 0 2.116.198 2.968.593.852.394 1.563.94 2.133 1.63.572.69 1 1.5 1.29 2.435.288.932.432 1.927.432 2.987 0 1.046-.144 2.028-.43 2.948-.292.918-.717 1.724-1.28 2.414-.562.69-1.27 1.237-2.112 1.64-.846.4-1.825.604-2.938.604s-2.092-.202-2.938-.603c-.846-.403-1.55-.95-2.113-1.64-.56-.69-.985-1.497-1.266-2.415-.284-.92-.424-1.9-.424-2.947m6.76 6.438c.938 0 1.747-.177 2.425-.532.676-.354 1.234-.828 1.67-1.42.437-.588.757-1.273.966-2.05.21-.78.313-1.59.313-2.436 0-1.006-.125-1.908-.372-2.707-.248-.798-.606-1.48-1.076-2.042-.47-.563-1.04-.993-1.71-1.288-.67-.295-1.424-.442-2.255-.442-.927 0-1.728.18-2.405.543-.677.36-1.234.842-1.67 1.44-.434.596-.758 1.283-.967 2.06-.207.778-.31 1.59-.31 2.436 0 .858.103 1.678.31 2.454.21.78.533 1.463.967 2.052.436.592.993 1.06 1.67 1.41.678.35 1.493.523 2.445.523"/></svg>
<svg width="52" height="52" viewBox="0 0 52 52" id="rg" y="312"><path fill="#605E60" d="M51 26c0 13.808-11.192 25-25 25C12.193 51 1 39.808 1 26 1 12.193 12.193 1 26 1c13.808 0 25 11.193 25 25"/><circle stroke="#fff" stroke-width="1.5" stroke-miterlimit="10" cx="26" cy="26" r="25" fill="none"/><path fill="#fff" d="M14.636 27.27v6.368H13.31V19.613h5.494c1.545 0 2.727.29 3.545.866.817.577 1.226 1.517 1.226 2.813 0 .884-.18 1.587-.535 2.104-.356.52-.938.96-1.743 1.324.417.145.74.354.975.626s.41.584.527.936c.115.35.19.72.222 1.108.033.39.055.768.068 1.132.013.53.035.974.068 1.324.033.35.072.637.116.857.046.22.102.393.168.516.064.122.142.218.232.28v.137h-1.46c-.144-.234-.244-.557-.303-.973-.056-.417-.103-.852-.135-1.305-.03-.456-.06-.898-.077-1.327-.02-.428-.056-.78-.107-1.052-.08-.375-.204-.677-.378-.903-.175-.228-.387-.4-.634-.518-.247-.117-.523-.196-.827-.235-.305-.038-.62-.057-.944-.057h-4.17zm4.128-1.13c.494 0 .953-.054 1.374-.158.422-.103.79-.27 1.102-.495.312-.227.557-.516.74-.867.18-.35.274-.773.274-1.267 0-.52-.097-.947-.284-1.286-.188-.337-.44-.604-.76-.797-.317-.195-.683-.332-1.09-.41-.41-.08-.834-.117-1.276-.117h-4.207v5.396h4.127zM32.284 27.52v-1.128h6v7.245h-1.13v-2.395c-.248.416-.528.796-.847 1.14-.32.343-.687.636-1.1.876-.418.24-.898.427-1.443.556-.545.128-1.162.195-1.85.195-.885 0-1.702-.157-2.456-.47-.752-.31-1.4-.775-1.946-1.392-.545-.617-.973-1.395-1.276-2.33-.307-.935-.458-2.025-.458-3.272 0-1.026.13-1.984.39-2.872.26-.89.66-1.664 1.197-2.32.54-.655 1.214-1.17 2.025-1.546.813-.378 1.77-.566 2.875-.566.738 0 1.43.09 2.074.273.643.182 1.22.457 1.732.827.513.37.945.832 1.294 1.384.353.553.605 1.205.762 1.958h-1.363c-.117-.52-.315-.987-.595-1.403-.28-.414-.613-.762-1.004-1.04-.39-.277-.823-.494-1.305-.643-.48-.15-.98-.226-1.498-.226-.924 0-1.716.164-2.376.49-.664.324-1.21.782-1.64 1.372-.43.592-.74 1.3-.944 2.125-.2.825-.302 1.73-.302 2.717 0 .78.114 1.52.343 2.22.227.7.557 1.318.993 1.852.435.532.967.953 1.597 1.266.63.313 1.348.468 2.152.468.377 0 .766-.04 1.17-.127.4-.084.792-.223 1.168-.418.378-.194.727-.448 1.053-.76.324-.31.603-.694.836-1.15.22-.44.375-.9.46-1.383.084-.478.13-.987.145-1.52h-4.733z"/></svg>
<svg width="52" height="52" viewBox="0 0 52 52" id="rt" y="364"><path fill="#7AC943" d="M51.25 26c0 13.808-11.192 25-25 25-13.807 0-25-11.192-25-25 0-13.807 11.193-25 25-25 13.808 0 25 11.193 25 25"/><circle stroke="#fff" stroke-width="1.5" stroke-miterlimit="10" cx="26.25" cy="26" r="25" fill="none"/><path fill="#fff" d="M16.396 26.81v6.83h-1.42V18.6h5.89c1.657 0 2.924.31 3.802.93.877.62 1.316 1.627 1.316 3.018 0 .947-.192 1.7-.574 2.256-.384.557-1.007 1.03-1.87 1.42.445.154.794.375 1.044.668s.438.627.563 1.002c.125.376.206.774.24 1.19.036.42.06.823.073 1.212.014.57.038 1.045.072 1.42.036.376.077.683.126.92.048.237.108.422.177.552.07.134.154.235.252.304v.147H24.52c-.153-.253-.26-.6-.323-1.046-.063-.444-.113-.912-.147-1.4-.034-.486-.062-.96-.084-1.42-.02-.46-.058-.834-.115-1.127-.082-.403-.218-.727-.405-.972-.188-.243-.415-.43-.68-.554-.264-.124-.56-.208-.886-.25-.33-.04-.666-.062-1.015-.062h-4.47zm4.426-1.213c.53 0 1.02-.055 1.475-.166.453-.11.845-.29 1.18-.532.333-.243.597-.553.792-.93.194-.375.292-.828.292-1.357 0-.556-.1-1.015-.303-1.376-.203-.363-.474-.65-.815-.858-.343-.208-.73-.355-1.17-.44-.44-.082-.895-.124-1.367-.124h-4.513v5.786h4.427zM27.57 18.6h10.944v1.212h-4.762V33.64h-1.42V19.812H27.57z"/></svg>
<svg width="52" height="52" viewBox="0 0 52 52" id="rto" y="416"><path fill="#ED1C24" d="M51 26c0 13.807-11.192 25-25 25S1 39.807 1 26C1 12.194 12.19 1 26 1c13.808 0 25 11.194 25 25"/><circle stroke="#000" stroke-width="1.5" stroke-miterlimit="10" cx="26" cy="26" r="25" fill="none"/><path d="M7.73 26.63v7.008H6.274V18.21h6.042c1.7 0 3 .318 3.9.954.9.635 1.35 1.668 1.35 3.097 0 .972-.196 1.743-.59 2.315-.39.572-1.03 1.057-1.917 1.457.456.158.814.386 1.07.687.258.3.45.642.58 1.027.128.385.21.793.245 1.222.036.428.06.843.075 1.242.014.586.04 1.07.075 1.456.036.387.078.7.13.944.05.24.11.432.18.567.072.135.16.238.258.31v.15h-1.606c-.157-.26-.268-.614-.333-1.072-.064-.456-.115-.936-.15-1.436-.035-.5-.063-.986-.085-1.458-.022-.47-.062-.855-.12-1.156-.085-.414-.225-.746-.417-.996s-.425-.44-.696-.567c-.272-.13-.575-.215-.91-.258-.337-.042-.682-.065-1.04-.065H7.73zm4.544-1.24c.542 0 1.046-.058 1.51-.172.465-.113.87-.296 1.21-.546.343-.25.615-.566.814-.954.2-.385.3-.85.3-1.392 0-.572-.104-1.043-.31-1.415-.208-.37-.485-.663-.836-.878-.35-.214-.75-.364-1.2-.45-.45-.085-.917-.127-1.403-.127H7.73v5.935h4.544zM19.195 18.21h11.23v1.244h-4.887V33.64H24.08V19.453h-4.885zM31.9 25.946c0-1.128.156-2.186.462-3.172.31-.985.762-1.847 1.36-2.582.602-.736 1.343-1.317 2.23-1.747.886-.43 1.907-.643 3.065-.643 1.2 0 2.253.21 3.16.63.907.423 1.663 1.002 2.27 1.738.607.734 1.065 1.6 1.37 2.593.31.992.463 2.054.463 3.182 0 1.114-.153 2.16-.462 3.14-.306.98-.76 1.835-1.358 2.57-.6.736-1.35 1.318-2.25 1.746-.9.43-1.945.645-3.13.645-1.187 0-2.23-.215-3.13-.644-.9-.427-1.65-1.01-2.25-1.744-.6-.736-1.05-1.593-1.348-2.57-.3-.98-.45-2.025-.45-3.14m7.2 6.858c1 0 1.86-.188 2.582-.567.722-.378 1.313-.882 1.78-1.512.462-.63.808-1.357 1.028-2.186s.33-1.694.33-2.594c0-1.07-.13-2.032-.395-2.882-.263-.85-.646-1.575-1.146-2.175-.497-.6-1.105-1.058-1.82-1.372-.715-.314-1.513-.472-2.4-.472-.983 0-1.84.193-2.558.58-.725.384-1.316.895-1.78 1.53-.465.636-.807 1.37-1.028 2.197-.224.83-.334 1.692-.334 2.593 0 .914.11 1.786.334 2.614.222.828.563 1.557 1.028 2.185.464.63 1.056 1.13 1.78 1.5.718.373 1.587.56 2.6.56"/></svg>
<svg width="52" height="52" viewBox="0 0 52 52" id="rvf" y="468"><path fill="#FF6700" d="M51 26c0 13.808-11.192 25-25 25S1 39.808 1 26C1 12.193 12.192 1 26 1s25 11.193 25 25"/><path fill="#fff" d="M10.352 27.06v6.58H8.985V19.15h5.674c1.596 0 2.816.3 3.66.896.847.597 1.27 1.567 1.27 2.908 0 .912-.185 1.637-.554 2.173-.37.537-.97.993-1.8 1.37.428.146.764.36 1.006.643.24.28.422.603.543.964.12.364.198.747.23 1.148.034.403.058.79.07 1.167.014.55.038 1.006.07 1.367.035.362.075.658.123.887.046.227.104.405.17.53.068.13.148.227.242.294v.14h-1.508c-.148-.24-.252-.575-.313-1.005-.062-.43-.108-.88-.14-1.35-.036-.468-.062-.924-.082-1.367-.02-.442-.057-.805-.11-1.086-.082-.39-.212-.7-.392-.936-.18-.236-.4-.413-.655-.533-.253-.12-.54-.2-.853-.24-.316-.042-.64-.062-.977-.062h-4.308zm4.266-1.168c.51 0 .982-.054 1.42-.16.436-.108.814-.28 1.136-.515.322-.235.578-.532.765-.896.187-.36.28-.797.28-1.307 0-.537-.097-.98-.29-1.328-.196-.35-.457-.625-.785-.826-.33-.203-.704-.343-1.128-.424-.42-.08-.86-.12-1.316-.12h-4.347v5.573h4.265zM21.158 19.15h1.428l4.367 12.88L31.3 19.15h1.43l-5.033 14.49h-1.51zM34.58 33.64V19.15h9.335v1.17h-7.968v5.23h7.243v1.166h-7.243v6.923z"/></svg>
<svg width="52" height="52" viewBox="0 0 52 52" id="s" y="520"><path fill="#FF8300" d="M51 26c0 13.807-11.193 25-25 25C12.19 51 1 39.807 1 26S12.192 1 26 1c13.807 0 25 11.193 25 25"/><circle stroke="#fff" stroke-width="1.5" stroke-miterlimit="10" cx="26" cy="26" r="25" fill="none"/><path fill="#fff" d="M20.984 30.707c.07.834.257 1.543.56 2.123.304.582.694 1.055 1.172 1.418.478.365 1.03.63 1.653.795.625.166 1.293.248 2.004.248.833 0 1.554-.104 2.162-.313.61-.207 1.1-.488 1.486-.846.378-.353.663-.767.845-1.235.183-.47.272-.963.272-1.484 0-.728-.167-1.317-.495-1.77-.328-.45-.76-.82-1.29-1.107-.528-.285-1.135-.514-1.82-.688-.69-.174-1.392-.344-2.11-.51-.722-.164-1.425-.36-2.11-.586-.685-.224-1.293-.53-1.82-.912-.532-.38-.962-.872-1.29-1.47-.332-.6-.496-1.36-.496-2.28 0-.642.133-1.266.4-1.874.272-.608.67-1.147 1.2-1.614.53-.47 1.193-.842 1.992-1.12.8-.278 1.72-.418 2.76-.418 1.058 0 1.985.148 2.774.442.79.296 1.445.7 1.967 1.21.52.513.91 1.107 1.172 1.784.26.677.39 1.4.39 2.163H30.67c0-.71-.126-1.328-.377-1.85s-.594-.945-1.03-1.276c-.433-.328-.93-.572-1.482-.73-.557-.155-1.13-.232-1.72-.232-.902 0-1.662.125-2.278.376-.616.253-1.105.578-1.47.978-.366.4-.617.842-.756 1.328-.14.488-.167.973-.08 1.458.105.608.35 1.093.73 1.458.38.364.85.664 1.405.9.555.233 1.168.425 1.836.57.67.15 1.352.305 2.047.47.692.165 1.364.36 2.018.586.65.225 1.23.53 1.732.912.502.38.906.87 1.21 1.47.303.6.456 1.35.456 2.255 0 1.734-.6 3.08-1.798 4.033-1.2.955-2.882 1.434-5.052 1.434-.974 0-1.875-.127-2.708-.38-.833-.25-1.554-.63-2.162-1.145-.607-.51-1.082-1.145-1.418-1.9-.34-.754-.51-1.645-.51-2.668h1.72z"/></svg>
<svg width="52" height="52" viewBox="0 0 52 52" id="ten" y="572"><path fill="#7AC943" d="M51 25.967c0 13.808-11.19 25-25 25-13.807 0-25-11.192-25-25 0-13.807 11.193-25 25-25 13.81 0 25 11.193 25 25"/><circle stroke="#000" stroke-width="1.5" stroke-miterlimit="10" cx="26" cy="25.967" r="25" fill="none"/><path d="M17.65 19.96h-4.74v-1.094c.694-.053 1.323-.12 1.888-.208s1.06-.252 1.484-.495c.426-.243.78-.596 1.067-1.055.286-.46.498-1.08.638-1.862h1.33v18.358H17.65V19.96zM31.502 15.246c.903 0 1.686.134 2.346.404.66.27 1.22.638 1.68 1.106.46.468.832 1.016 1.117 1.64.29.626.51 1.29.665 1.994.158.703.263 1.427.313 2.174.053.747.08 1.476.08 2.188 0 1.215-.088 2.378-.26 3.49-.177 1.11-.492 2.09-.953 2.94-.46.854-1.09 1.53-1.89 2.032-.797.502-1.83.756-3.1.756-1.264 0-2.3-.254-3.11-.756-.805-.502-1.44-1.185-1.9-2.043-.46-.86-.778-1.857-.95-2.995-.174-1.136-.26-2.338-.26-3.607 0-1.162.08-2.3.233-3.41.158-1.11.457-2.105.9-2.98s1.07-1.586 1.885-2.124c.817-.538 1.888-.808 3.204-.808m4.533 9.322c0-.99-.057-1.956-.17-2.902-.113-.947-.333-1.792-.662-2.54-.332-.745-.795-1.346-1.395-1.796-.6-.45-1.384-.677-2.356-.677-.922 0-1.672.23-2.252.69-.583.46-1.04 1.07-1.368 1.835s-.56 1.632-.69 2.604-.195 1.962-.195 2.97c0 1.18.073 2.252.22 3.214.148.965.397 1.785.744 2.463.347.674.813 1.2 1.393 1.573.583.374 1.316.562 2.2.562.99 0 1.786-.244 2.385-.73.597-.486 1.056-1.11 1.367-1.876.312-.763.52-1.622.624-2.58.103-.952.155-1.89.155-2.812"/></svg>
<svg width="52" height="52" viewBox="0 0 52 52" id="x" y="624"><path fill="#FFD200" d="M51 26c0 13.81-11.19 25-25 25C12.193 51 1 39.81 1 26 1 12.193 12.193 1 26 1c13.81 0 25 11.193 25 25"/><circle stroke="#000" stroke-width="1.5" stroke-miterlimit="10" cx="26" cy="26" r="25" fill="none"/><path d="M26.294 28.025l-5.443 8.28h-2.003l6.458-9.635-6.198-9.114h2.058l5.13 7.89 5.156-7.89h2.058L27.36 26.67l6.435 9.636h-2.03z"/></svg>
<svg width="52" height="52" viewBox="0 0 52 52" id="yellowbag" y="676"><path fill="#FFD200" d="M51 39.107c0 3.02-2.164 5.535-5.275 5.535H6.298C3.188 44.642 1 42.127 1 39.107V20.43c0-3.02 2.188-5.553 5.298-5.553h39.426c3.11 0 5.275 2.532 5.275 5.553v18.677z"/><path fill="#fff" d="M7.604 14.877H9.02v29.766H7.603zM43.453 14.877h1.415v29.766h-1.415z"/><path stroke="#FFD200" stroke-width="5" stroke-miterlimit="10" d="M35.198 18.997c0 3.306-2.52 6.037-5.48 6.037h-8.033c-2.958 0-5.355-2.73-5.355-6.037V14.01c0-3.305 2.397-5.985 5.355-5.985h8.034c2.957 0 5.478 2.68 5.478 5.985v4.987z" fill="none"/></svg>
</svg>